Coordinates
version=1
nRows=17
nColumns=24
inDegrees=yes

Units are S.I. units (second, meters, Newtons, ...)
If the header above contains a line with 'inDegrees', this indicates whether rotational values are in degrees (yes) or radians (no).

endheader
time	pelvis_tilt	pelvis_list	pelvis_rotation	pelvis_tx	pelvis_ty	pelvis_tz	hip_flexion_r	hip_adduction_r	hip_rotation_r	knee_angle_r	ankle_angle_r	subtalar_angle_r	mtp_angle_r	hip_flexion_l	hip_adduction_l	hip_rotation_l	knee_angle_l	ankle_angle_l	subtalar_angle_l	mtp_angle_l	lumbar_extension	lumbar_bending	lumbar_rotation
      0.00000000	     -2.99903519	      0.00000000	      0.00000000	      0.61190968	      1.00383613	      0.00000000	    -11.98457701	      0.00000000	      0.00000000	    -11.21949897	     16.38800022	      0.00000000	      0.00000000	     26.22549711	      0.00000000	      0.00000000	     -1.00401744	     -6.75832371	      0.00000000	      0.00000000	      0.00000000	      0.00000000	      0.00000000
      0.01700000	     -3.40116732	      0.00000000	      0.00000000	      0.61209364	      1.00289098	      0.00000000	    -11.66294025	      0.00000000	      0.00000000	    -13.32905679	     16.46562954	      0.00000000	      0.00000000	     26.61540074	      0.00000000	      0.00000000	     -2.38288450	     -8.86536706	      0.00000000	      0.00000000	      0.00000000	      0.00000000	      0.00000000
      0.03300000	     -3.71004136	      0.00000000	      0.00000000	      0.61311365	      1.00224084	      0.00000000	    -11.52378944	      0.00000000	      0.00000000	    -15.29751865	     16.24509514	      0.00000000	      0.00000000	     26.88761194	      0.00000000	      0.00000000	     -3.94608879	    -10.55268954	      0.00000000	      0.00000000	      0.00000000	      0.00000000	      0.00000000
      0.05000000	     -3.99374337	      0.00000000	      0.00000000	      0.61429394	      1.00186953	      0.00000000	    -11.15698603	      0.00000000	      0.00000000	    -17.73553365	     15.75822780	      0.00000000	      0.00000000	     27.21695528	      0.00000000	      0.00000000	     -5.79442374	    -11.69649627	      0.00000000	      0.00000000	      0.00000000	      0.00000000	      0.00000000
      0.06700000	     -3.98843036	      0.00000000	      0.00000000	      0.61636152	      1.00257969	      0.00000000	    -10.95100662	      0.00000000	      0.00000000	    -20.40364938	     14.71724599	      0.00000000	      0.00000000	     27.25511611	      0.00000000	      0.00000000	     -7.97437975	    -12.06189157	      0.00000000	      0.00000000	      0.00000000	      0.00000000	      0.00000000
      0.08300000	     -4.03518396	      0.00000000	      0.00000000	      0.61861844	      1.00376397	      0.00000000	    -10.23068196	      0.00000000	      0.00000000	    -23.81537985	     13.26769104	      0.00000000	      0.00000000	     27.07959253	      0.00000000	      0.00000000	     -9.81472567	    -12.00243274	      0.00000000	      0.00000000	      0.00000000	      0.00000000	      0.00000000
      0.10000000	     -3.98018085	      0.00000000	      0.00000000	      0.62099615	      1.00535871	      0.00000000	     -9.05762279	      0.00000000	      0.00000000	    -28.09129086	     11.27125327	      0.00000000	      0.00000000	     26.84717172	      0.00000000	      0.00000000	    -11.96828187	    -11.17836028	      0.00000000	      0.00000000	      0.00000000	      0.00000000	      0.00000000
      0.11700000	     -3.89347973	      0.00000000	      0.00000000	      0.62317369	      1.00754501	      0.00000000	     -7.45047017	      0.00000000	      0.00000000	    -32.86780343	      8.42908384	      0.00000000	      0.00000000	     26.28986949	      0.00000000	      0.00000000	    -13.62470223	    -10.18573916	      0.00000000	      0.00000000	      0.00000000	      0.00000000	      0.00000000
      0.13300000	     -3.94720720	      0.00000000	      0.00000000	      0.62477021	      1.00967582	      0.00000000	     -5.12531267	      0.00000000	      0.00000000	    -38.20641216	      4.88587048	      0.00000000	      0.00000000	     25.61532557	      0.00000000	      0.00000000	    -14.73885526	     -9.08194031	      0.00000000	      0.00000000	      0.00000000	      0.00000000	      0.00000000
      0.15000000	     -3.93420422	      0.00000000	      0.00000000	      0.62570173	      1.01218802	      0.00000000	     -2.52801801	      0.00000000	      0.00000000	    -43.56275530	      0.82308374	      0.00000000	      0.00000000	     24.58233236	      0.00000000	      0.00000000	    -15.24510594	     -7.99036841	      0.00000000	      0.00000000	      0.00000000	      0.00000000	      0.00000000
      0.16700000	     -3.90095400	      0.00000000	      0.00000000	      0.62684835	      1.01501764	      0.00000000	      0.08597753	      0.00000000	      0.00000000	    -48.45218627	     -2.99646258	      0.00000000	      0.00000000	     23.25847907	      0.00000000	      0.00000000	    -15.26778715	     -6.89001708	      0.00000000	      0.00000000	      0.00000000	      0.00000000	      0.00000000
      0.18300000	     -4.01574843	      0.00000000	      0.00000000	      0.62601932	      1.01755232	      0.00000000	      3.08536633	      0.00000000	      0.00000000	    -53.17894252	     -5.50355395	      0.00000000	      0.00000000	     22.10613400	      0.00000000	      0.00000000	    -15.06664295	     -5.96759601	      0.00000000	      0.00000000	      0.00000000	      0.00000000	      0.00000000
      0.20000000	     -4.01658573	      0.00000000	      0.00000000	      0.62535855	      1.02019870	      0.00000000	      5.85502866	      0.00000000	      0.00000000	    -57.42722209	     -6.16915167	      0.00000000	      0.00000000	     20.72508610	      0.00000000	      0.00000000	    -14.68425395	     -5.06796406	      0.00000000	      0.00000000	      0.00000000	      0.00000000	      0.00000000
      0.21700000	     -4.22785463	      0.00000000	      0.00000000	      0.62393398	      1.02249019	      0.00000000	      8.86537322	      0.00000000	      0.00000000	    -61.29058755	     -5.29153780	      0.00000000	      0.00000000	     19.65722344	      0.00000000	      0.00000000	    -14.41038354	     -4.21028769	      0.00000000	      0.00000000	      0.00000000	      0.00000000	      0.00000000
      0.23300000	     -4.18150524	      0.00000000	      0.00000000	      0.62355302	      1.02540722	      0.00000000	     11.30532436	      0.00000000	      0.00000000	    -64.31529921	     -3.43093043	      0.00000000	      0.00000000	     18.02808297	      0.00000000	      0.00000000	    -13.69269964	     -3.47341551	      0.00000000	      0.00000000	      0.00000000	      0.00000000	      0.00000000
      0.25000000	     -4.14941775	      0.00000000	      0.00000000	      0.62175864	      1.02808285	      0.00000000	     13.85833663	      0.00000000	      0.00000000	    -66.82975891	     -1.48793112	      0.00000000	      0.00000000	     16.43415918	      0.00000000	      0.00000000	    -12.79621165	     -2.94376572	      0.00000000	      0.00000000	      0.00000000	      0.00000000	      0.00000000
      0.26700000	     -4.17736249	      0.00000000	      0.00000000	      0.62032659	      1.03035565	      0.00000000	     16.30248193	      0.00000000	      0.00000000	    -68.53364252	      0.14010279	      0.00000000	      0.00000000	     14.78166198	      0.00000000	      0.00000000	    -11.66179957	     -2.49010612	      0.00000000	      0.00000000	      0.00000000	      0.00000000	      0.00000000
